<?xml version="1.0" encoding="UTF-8"?>
<svg id="Layer_1" xmlns="http://www.w3.org/2000/svg" version="1.1" viewBox="0 0 1600 800">
  <!-- Generator: Adobe Illustrator 29.6.1, SVG Export Plug-In . SVG Version: 2.1.1 Build 9)  -->
  <defs>
    <style>
      .st0, .st1, .st2, .st3, .st4, .st5, .st6, .st7, .st8, .st9 {
        stroke-miterlimit: 4.4;
      }

      .st0, .st1, .st2, .st4, .st5, .st6, .st7, .st8, .st9 {
        fill: none;
      }

      .st0, .st1, .st7, .st9 {
        stroke: #5b5b7c;
      }

      .st0, .st3, .st7 {
        stroke-width: .5px;
      }

      .st10 {
        fill: #1661b2;
        font-family: Gotham-Thin, Gotham;
        font-size: 67.88px;
        font-weight: 200;
        letter-spacing: .2em;
      }

      .st10, .st11, .st12, .st7, .st9 {
        isolation: isolate;
      }

      .st1, .st9 {
        stroke-width: .7px;
      }

      .st2 {
        stroke: #43ff64;
      }

      .st2, .st6 {
        stroke-width: 6px;
      }

      .st3 {
        fill: #43435b;
        stroke: #43435b;
      }

      .st4, .st8 {
        stroke: #60607c;
        stroke-width: 1.5px;
      }

      .st5 {
        stroke: #4b43ff;
        stroke-width: 8px;
      }

      .st11 {
        fill: #a0afda;
        font-family: Gotham-Medium, Gotham;
        font-size: 120px;
        font-weight: 500;
        letter-spacing: .1em;
      }

      .st6 {
        stroke: #f80006;
      }

      .st13 {
        fill: #f80006;
      }

      .st14 {
        fill: #43ff64;
      }

      .st15 {
        opacity: .4;
      }

      .st7 {
        opacity: .53;
      }

      .st8 {
        stroke-opacity: .85;
      }

      .st16 {
        fill: #4b43ff;
      }

      .st9 {
        opacity: .8;
      }
    </style>
  </defs>
  <g class="st12">
    <g class="st12">
      <g class="st12">
        <g class="st12">
          <text class="st11" transform="translate(610 400)"><tspan x="0" y="0">THIRD AXIS</tspan></text>
        </g>
      </g>
    </g>
  </g>
  <g class="st12">
    <g class="st12">
      <g class="st12">
        <g class="st12">
          <g class="st12">
            <text class="st10" transform="translate(1102.79 465.7)"><tspan x="0" y="0">DESIGN</tspan></text>
          </g>
        </g>
      </g>
    </g>
  </g>
  <circle class="st0" cx="329.35" cy="383.79" r="151.14"/>
  <ellipse class="st0" cx="329.35" cy="383.79" rx="151.14" ry="124.11"/>
  <ellipse class="st7" cx="329.35" cy="383.79" rx="151.14" ry="78.99"/>
  <ellipse class="st1" cx="329.35" cy="383.79" rx="151.14" ry="32.87"/>
  <ellipse class="st7" cx="329.35" cy="383.79" rx="124.11" ry="151.14"/>
  <ellipse class="st9" cx="329.35" cy="383.79" rx="78.99" ry="151.14"/>
  <ellipse class="st7" cx="329.35" cy="383.79" rx="32.87" ry="151.14"/>
  <g>
    <path class="st4" d="M329.35,180.89l175.37,101.45v202.9l-175.37,101.45-175.37-101.45v-202.9l175.37-101.45Z"/>
    <path class="st8" d="M329.35,180.89v405.8M153.98,282.34l350.73,202.9M504.71,282.34l-350.73,202.9"/>
  </g>
  <g>
    <line class="st5" x1="329.79" y1="135.48" x2="329.79" y2="581.6"/>
    <polygon class="st16" points="315.83 139.57 329.79 115.39 343.75 139.57 315.83 139.57"/>
  </g>
  <g>
    <line class="st2" x1="538.07" y1="466.21" x2="330.74" y2="586.42"/>
    <polygon class="st14" points="530.17 458.69 551.11 458.65 540.67 476.8 530.17 458.69"/>
  </g>
  <g class="st15">
    <g>
      <line class="st6" x1="432.51" y1="654.46" x2="325.05" y2="584.97"/>
      <polygon class="st13" points="435.62 644 445.16 662.64 424.25 661.59 435.62 644"/>
    </g>
  </g>
  <ellipse class="st3" cx="329.05" cy="585.97" rx="9.8" ry="9.91"/>
</svg>