<?xml version="1.0" encoding="UTF-8"?>
<svg id="Layer_1" xmlns="http://www.w3.org/2000/svg" xmlns:xlink="http://www.w3.org/1999/xlink" version="1.1" viewBox="0 0 1600 800">
  <!-- Generator: Adobe Illustrator 29.6.1, SVG Export Plug-In . SVG Version: 2.1.1 Build 9)  -->
  <defs>
    <style>
      .st0, .st1, .st2, .st3, .st4, .st5, .st6, .st7, .st8, .st9, .st10 {
        fill: none;
      }

      .st11 {
        fill: url(#grid);
      }

      .st12 {
        fill: #0d1b2a;
      }

      .st1, .st2, .st3, .st4, .st6, .st13, .st7, .st8, .st9, .st10 {
        stroke-miterlimit: 4.4;
      }

      .st1, .st2, .st7, .st8 {
        stroke: #5b5b7c;
      }

      .st1, .st13, .st7 {
        stroke-width: .5px;
      }

      .st2, .st8 {
        stroke-width: .7px;
      }

      .st3 {
        stroke: #43ff64;
      }

      .st3, .st9 {
        stroke-width: 6px;
      }

      .st4, .st10 {
        stroke: #60607c;
        stroke-width: 1.5px;
      }

      .st5 {
        opacity: .15;
        stroke: #2e4057;
      }

      .st5, .st14, .st15, .st16 {
        isolation: isolate;
      }

      .st6 {
        stroke: #4b43ff;
        stroke-width: 8px;
      }

      .st14 {
        fill: #1661b2;
        font-family: Gotham-Thin, Gotham;
        font-size: 67.88px;
        font-weight: 200;
        letter-spacing: .2em;
      }

      .st16 {
        fill: #a0afda;
        font-family: Gotham-Medium, Gotham;
        font-size: 120px;
        font-weight: 500;
        letter-spacing: .1em;
      }

      .st13 {
        fill: #43435b;
        stroke: #43435b;
      }

      .st7 {
        opacity: .53;
      }

      .st8 {
        opacity: .8;
      }

      .st9 {
        stroke: #f80006;
      }

      .st17 {
        fill: #f80006;
      }

      .st18 {
        fill: #43ff64;
      }

      .st19 {
        opacity: .4;
      }

      .st10 {
        stroke-opacity: .85;
      }

      .st20 {
        fill: #4b43ff;
      }
    </style>
    <pattern id="grid" x="0" y="0" width="50" height="50" patternTransform="translate(3 1942.62)" patternUnits="userSpaceOnUse" viewBox="0 0 50 50">
      <g>
        <rect class="st0" width="50" height="50"/>
        <g>
          <rect class="st0" width="50" height="50"/>
          <g>
            <rect class="st0" width="50" height="50"/>
            <g>
              <rect class="st0" width="50" height="50"/>
              <polyline class="st5" points="50 0 0 0 0 50"/>
            </g>
          </g>
        </g>
      </g>
    </pattern>
  </defs>
  <rect class="st12" y="1" width="1600" height="800"/>
  <rect class="st11" y="-2.05" width="1600" height="802.05"/>
  <g class="st15">
    <g class="st15">
      <g class="st15">
        <text class="st16" transform="translate(610 400)"><tspan x="0" y="0">THIRD AXIS</tspan></text>
      </g>
    </g>
  </g>
  <g class="st15">
    <g class="st15">
      <g class="st15">
        <g class="st15">
          <text class="st14" transform="translate(1102.79 465.7)"><tspan x="0" y="0">DESIGN</tspan></text>
        </g>
      </g>
    </g>
  </g>
  <circle class="st1" cx="329.35" cy="383.79" r="151.14"/>
  <ellipse class="st1" cx="329.35" cy="383.79" rx="151.14" ry="124.11"/>
  <ellipse class="st7" cx="329.35" cy="383.79" rx="151.14" ry="78.99"/>
  <ellipse class="st2" cx="329.35" cy="383.79" rx="151.14" ry="32.87"/>
  <ellipse class="st7" cx="329.35" cy="383.79" rx="124.11" ry="151.14"/>
  <ellipse class="st8" cx="329.35" cy="383.79" rx="78.99" ry="151.14"/>
  <ellipse class="st7" cx="329.35" cy="383.79" rx="32.87" ry="151.14"/>
  <g>
    <path class="st4" d="M329.35,180.89l175.37,101.45v202.9l-175.37,101.45-175.37-101.45v-202.9l175.37-101.45Z"/>
    <path class="st10" d="M329.35,180.89v405.8M153.98,282.34l350.73,202.9M504.71,282.34l-350.73,202.9"/>
  </g>
  <g>
    <line class="st6" x1="329.79" y1="135.48" x2="329.79" y2="581.6"/>
    <polygon class="st20" points="315.83 139.57 329.79 115.39 343.75 139.57 315.83 139.57"/>
  </g>
  <g>
    <line class="st3" x1="538.07" y1="466.21" x2="330.74" y2="586.42"/>
    <polygon class="st18" points="530.17 458.69 551.11 458.65 540.67 476.8 530.17 458.69"/>
  </g>
  <g class="st19">
    <g>
      <line class="st9" x1="432.51" y1="654.46" x2="325.05" y2="584.97"/>
      <polygon class="st17" points="435.62 644 445.16 662.64 424.25 661.59 435.62 644"/>
    </g>
  </g>
  <ellipse class="st13" cx="329.05" cy="585.97" rx="9.8" ry="9.91"/>
</svg>